{"title":"Great.Expectations.2012.BRRip.XviD.AC3.HORiZON-ArtSubs","uid":8304738,"size":1928800822,"categoryP":"video","categoryS":"movies","magnet":"?xt=urn:btih:191f183e5501d4bd4c9a570f3400840f29fbc535&amp;dn=Great.Expectations.2012.BRRip.XviD.AC3.HORiZON-ArtSubs&amp;tr=udp%3A%2F%2Ftracker.openbittorrent.com%3A80&amp;tr=udp%3A%2F%2Fopen.demonii.com%3A1337&amp;tr=udp%3A%2F%2Ftracker.coppersurfer.tk%3A6969&amp;tr=udp%3A%2F%2Fexodus.desync.com%3A6969","seeders":1,"leechers":0,"uploader":"lletaif","files":1,"time":1364341157,"description":"Title:\nGreat Expectations\n\nCountry:\nUK/2012\n\nLanguage:\nEnglish\n\nNo Subtitle\n\nDirector:\nMike Newell\n\nWriters:\nCharles Dickens (novel), David Nicholls (screenplay)\n\nStars:\nRalph Fiennes, Helena Bonham Carter, Robbie Coltrane\n\nSynopsis:\nA humble orphan suddenly becomes a gentleman with the help of an unknown benefactor. \n\nTrivia:\n\n*Nominated BAFTA Film Award 2013 - Costume Design\n\n*Official Selection Toronto International Film Festival\n\n*Official Selection Rio de Janeiro International Film Festival\n\nImdb:  &lt;a href=&quot;\nhttp://www.imdb.com/title/tt1836808&quot; rel=&quot;nofollow&quot; target=&quot;_NEW&quot;&gt;\nhttp://www.imdb.com/title/tt1836808&lt;/a&gt;\n\nTrailer:  &lt;a href=&quot;\nhttp://outnow.ch/Movies/2012/GreatExpectations/Trailers/trailer1_en&quot; rel=&quot;nofollow&quot; target=&quot;_NEW&quot;&gt;\nhttp://outnow.ch/Movies/2012/GreatExpectations/Trailers/trailer1_en&lt;/a&gt;\n\nMedia Info:\n\nGeneral\nComplete name                            : Great.Expectations.2012.BRRip.XviD.AC3.HORiZON-ArtSubs\nFormat                                   : AVI\nFormat/Info                              : Audio Video Interleave\nFormat profile                           : OpenDML\nFile size                                : 1.80 GiB\nDuration                                 : 2h 8mn\nOverall bit rate                         : 2 003 Kbps\nWriting application                      : Lavf52.94.0\n\nVideo\nID                                       : 0\nFormat                                   : MPEG-4 Visual\nFormat profile                           : Simple@L3\nFormat settings, BVOP                    : No\nFormat settings, QPel                    : No\nFormat settings, GMC                     : No warppoints\nFormat settings, Matrix                  : Default (H.263)\nCodec ID                                 : XVID\nCodec ID/Hint                            : XviD\nDuration                                 : 2h 8mn\nBit rate                                 : 1 768 Kbps\nWidth                                    : 1 280 pixels\nHeight                                   : 544 pixels\nDisplay aspect ratio                     : 2.35:1\nFrame rate                               : 24.000 fps\nColor space                              : YUV\nChroma subsampling                       : 4:2:0\nBit depth                                : 8 bits\nScan type                                : Progressive\nCompression mode                         : Lossy\nBits/(Pixel*Frame)                       : 0.106\nStream size                              : 1.59 GiB (88%)\nWriting library                          : XviD 1.2.1 (UTC 2008-12-04)\n\nAudio\nID                                       : 1\nFormat                                   : AC-3\nFormat/Info                              : Audio Coding 3\nMode extension                           : CM (complete main)\nFormat settings, Endianness              : Big\nCodec ID                                 : 2000\nDuration                                 : 2h 8mn\nBit rate mode                            : Constant\nBit rate                                 : 224 Kbps\nChannel(s)                               : 2 channels\nChannel positions                        : Front: L R\nSampling rate                            : 48.0 KHz\nBit depth                                : 16 bits\nCompression mode                         : Lossy\nStream size                              : 206 MiB (11%)\nAlignment                                : Aligned on interleaves\nInterleave, duration                     : 32 ms (0.77 video frame)\nInterleave, preload duration             : 32 ms\n\n","torrent":{"xt":"urn:btih:191f183e5501d4bd4c9a570f3400840f29fbc535","amp;dn":"Great.Expectations.2012.BRRip.XviD.AC3.HORiZON-ArtSubs","amp;tr":["udp%3A%2F%2Ftracker.openbittorrent.com%3A80","udp%3A%2F%2Fopen.demonii.com%3A1337","udp%3A%2F%2Ftracker.coppersurfer.tk%3A6969","udp%3A%2F%2Fexodus.desync.com%3A6969"],"infoHash":"191f183e5501d4bd4c9a570f3400840f29fbc535","infoHashBuffer":{"type":"Buffer","data":[25,31,24,62,85,1,212,189,76,154,87,15,52,0,132,15,41,251,197,53]},"announce":[],"urlList":[]}}